<svg width="40" height="40" viewBox="0 0 40 40" fill="none" xmlns="http://www.w3.org/2000/svg">
    <path d="M21.125 21.0781H21.0781V21.125V28.25C21.0781 28.5359 20.9645 28.8102 20.7623 29.0123C20.5602 29.2145 20.2859 29.3281 20 29.3281C19.7141 29.3281 19.4398 29.2145 19.2377 29.0123C19.0355 28.8102 18.9219 28.5359 18.9219 28.25V21.125V21.0781H18.875H11.75C11.4641 21.0781 11.1898 20.9645 10.9877 20.7623C10.7855 20.5602 10.6719 20.2859 10.6719 20C10.6719 19.7141 10.7855 19.4398 10.9877 19.2377C11.1898 19.0355 11.4641 18.9219 11.75 18.9219H18.875H18.9219V18.875V11.75C18.9219 11.4641 19.0355 11.1898 19.2377 10.9877C19.4398 10.7855 19.7141 10.6719 20 10.6719C20.2859 10.6719 20.5602 10.7855 20.7623 10.9877C20.9645 11.1898 21.0781 11.4641 21.0781 11.75V18.875V18.9219H21.125H28.25C28.5359 18.9219 28.8102 19.0355 29.0123 19.2377C29.2145 19.4398 29.3281 19.7141 29.3281 20C29.3281 20.2859 29.2145 20.5602 29.0123 20.7623C28.8102 20.9645 28.5359 21.0781 28.25 21.0781H21.125Z" fill="#94A3B8" stroke="#94A3B8" stroke-width="0.09375"/>
</svg>
    