<svg xmlns="http://www.w3.org/2000/svg" width="537" height="61" viewBox="0 0 537 61">
<g>
<path d="M 406.00,50.00 L 402.70,50.00 L 401.28,49.56 L 400.92,49.39 L 400.16,48.87 L 399.77,48.58 L 398.92,47.75 L 398.47,47.29 L 397.46,46.10 L 396.92,45.45 L 395.69,43.82 L 395.04,42.95 L 393.52,40.83 L 390.87,37.04 L 384.50,27.84 L 384.00,38.67 L 383.94,40.01 L 383.83,42.21 L 383.78,43.24 L 383.67,44.88 L 383.61,45.64 L 383.48,46.81 L 383.41,47.35 L 383.24,48.14 L 383.14,48.49 L 382.89,48.97 L 382.76,49.18 L 382.43,49.44 L 380.96,49.80 L 380.26,49.88 L 378.96,49.80 L 378.37,49.72 L 377.71,49.38 L 377.66,49.33 L 377.57,48.88 L 377.52,48.60 L 377.44,47.73 L 377.39,47.25 L 377.31,46.01 L 377.28,45.35 L 377.21,43.78 L 377.14,42.15 L 377.06,38.12 L 377.00,31.33 L 377.00,14.00 L 380.25,14.04 L 381.00,14.05 L 382.22,14.35 L 382.53,14.47 L 383.15,14.86 L 383.47,15.09 L 384.16,15.74 L 384.53,16.10 L 385.36,17.07 L 385.80,17.61 L 386.83,18.96 L 387.38,19.70 L 388.68,21.50 L 391.00,24.79 L 398.50,35.50 L 398.78,24.75 L 399.07,14.00 L 406.00,14.00 M 369.00,50.00 L 365.72,50.00 L 364.36,49.61 L 364.02,49.46 L 363.29,48.97 L 362.92,48.68 L 362.10,47.88 L 361.67,47.44 L 360.67,46.26 L 360.15,45.62 L 358.91,44.00 L 358.26,43.13 L 356.72,40.99 L 354.00,37.13 L 347.50,27.84 L 347.22,38.92 L 346.93,50.00 L 343.36,50.00 L 341.96,49.80 L 341.33,49.68 L 340.67,49.33 L 340.62,49.29 L 340.53,48.85 L 340.49,48.57 L 340.41,47.71 L 340.37,47.23 L 340.29,45.99 L 340.26,45.33 L 340.20,43.77 L 340.14,42.14 L 340.05,38.12 L 340.00,31.33 L 340.00,14.00 L 343.25,14.01 L 344.00,14.01 L 345.22,14.29 L 345.52,14.41 L 346.13,14.79 L 346.45,15.01 L 347.13,15.64 L 347.49,16.00 L 348.31,16.95 L 348.74,17.47 L 349.76,18.80 L 350.29,19.52 L 351.57,21.29 L 353.84,24.51 L 354.85,25.96 L 356.75,28.55 L 357.66,29.78 L 359.24,31.79 L 359.98,32.70 L 361.06,33.89 L 361.30,34.13 L 361.64,34.42 L 361.94,34.54 L 362.04,34.47 L 362.20,33.56 L 362.26,33.00 L 362.33,31.26 L 362.36,30.31 L 362.34,27.97 L 362.22,24.03 L 361.73,14.00 L 369.00,14.00 M 255.72,14.37 L 255.74,14.61 L 255.79,15.42 L 255.81,15.88 L 255.84,17.08 L 255.86,17.73 L 255.90,19.29 L 255.91,20.10 L 255.94,21.95 L 255.95,22.91 L 255.97,25.01 L 256.00,32.00 L 256.00,50.00 L 252.39,50.00 L 250.97,49.80 L 250.34,49.68 L 249.67,49.33 L 249.62,49.29 L 249.53,48.87 L 249.49,48.61 L 249.41,47.79 L 249.37,47.34 L 249.29,46.18 L 249.26,45.56 L 249.20,44.09 L 249.14,42.56 L 249.05,38.79 L 249.00,32.43 L 249.00,16.20 L 252.15,15.10 L 253.02,14.80 L 254.48,14.32 L 254.79,14.22 L 255.26,14.09 L 255.65,14.00 L 255.67,14.00 M 164.71,30.99 L 165.57,33.25 L 167.15,37.49 L 167.90,39.52 L 169.15,43.00 L 169.44,43.81 L 169.92,45.21 L 170.15,45.87 L 170.50,46.95 L 170.66,47.44 L 170.87,48.15 L 171.00,48.74 L 171.00,49.14 L 170.32,49.65 L 169.90,49.86 L 168.67,49.96 L 168.02,49.96 L 166.64,49.66 L 164.82,48.75 L 164.71,48.66 L 164.43,48.28 L 164.27,48.05 L 163.91,47.42 L 163.53,46.72 L 162.59,44.71 L 162.10,43.62 L 161.03,41.02 L 159.42,36.75 L 158.89,35.27 L 157.88,32.58 L 157.40,31.29 L 156.54,29.16 L 156.15,28.18 L 155.55,26.85 L 155.42,26.58 L 155.22,26.22 L 155.03,26.00 L 154.96,26.00 L 154.64,26.53 L 154.45,26.88 L 153.96,27.98 L 153.70,28.59 L 153.10,30.13 L 152.14,32.75 L 151.77,33.82 L 151.09,35.76 L 150.76,36.70 L 150.16,38.39 L 149.58,40.03 L 148.63,42.65 L 148.18,43.86 L 147.44,45.71 L 147.09,46.56 L 146.49,47.78 L 146.20,48.32 L 145.67,49.04 L 145.41,49.35 L 144.89,49.71 L 142.99,50.00 L 142.20,50.00 L 140.79,49.73 L 140.17,49.56 L 139.54,49.07 L 139.50,49.00 L 139.56,48.54 L 139.60,48.25 L 139.82,47.38 L 139.95,46.89 L 140.31,45.66 L 140.51,45.01 L 141.01,43.47 L 141.54,41.86 L 142.92,37.92 L 145.35,31.32 L 151.74,14.50 L 158.41,14.50 M 14.00,29.00 L 28.00,29.00 L 28.00,14.00 L 35.00,14.00 L 35.00,34.13 L 34.99,37.68 L 34.99,39.34 L 34.96,42.02 L 34.94,43.26 L 34.87,45.20 L 34.84,46.09 L 34.72,47.40 L 34.66,48.00 L 34.49,48.81 L 34.39,49.16 L 34.15,49.59 L 33.08,50.00 L 31.97,50.00 L 30.41,49.75 L 29.73,49.56 L 28.87,48.69 L 28.69,48.43 L 28.43,47.73 L 28.32,47.35 L 28.17,46.39 L 28.10,45.88 L 28.04,44.63 L 28.00,42.39 L 28.00,36.00 L 14.00,36.00 L 14.00,43.83 L 13.99,45.20 L 13.98,45.84 L 13.95,46.88 L 13.93,47.37 L 13.85,48.12 L 13.80,48.46 L 13.67,48.97 L 13.52,49.43 L 13.00,49.80 L 11.75,49.92 L 11.13,49.90 L 9.79,49.72 L 9.16,49.61 L 8.25,49.34 L 8.13,49.29 L 7.93,48.99 L 7.83,48.81 L 7.66,48.21 L 7.58,47.87 L 7.44,46.93 L 7.38,46.42 L 7.28,45.11 L 7.23,44.41 L 7.15,42.70 L 7.11,41.79 L 7.06,39.65 L 7.04,38.52 L 7.02,35.90 L 7.00,31.42 L 7.00,14.00 L 14.00,14.00 M 58.16,14.44 L 59.47,15.75 L 59.98,17.08 L 61.19,20.23 L 61.82,21.87 L 63.17,25.43 L 64.54,29.04 L 67.29,36.38 L 67.94,38.14 L 69.13,41.34 L 69.69,42.87 L 70.62,45.43 L 70.84,46.02 L 71.20,47.02 L 71.37,47.49 L 71.63,48.24 L 71.75,48.59 L 71.90,49.05 L 72.00,49.39 L 72.00,49.50 L 71.77,49.67 L 71.62,49.74 L 71.16,49.85 L 70.64,49.95 L 69.20,49.97 L 68.46,49.95 L 67.01,49.75 L 65.45,49.23 L 65.37,49.18 L 65.16,48.88 L 65.04,48.70 L 64.75,48.15 L 64.44,47.56 L 63.64,45.79 L 63.21,44.83 L 62.26,42.54 L 61.78,41.36 L 60.79,38.83 L 60.30,37.56 L 59.37,35.05 L 58.92,33.83 L 58.16,31.61 L 57.81,30.57 L 57.32,28.92 L 57.00,27.39 L 57.00,26.92 L 56.91,26.31 L 56.84,26.06 L 56.63,25.87 L 56.51,25.83 L 56.19,26.04 L 56.01,26.19 L 55.59,26.79 L 55.37,27.14 L 54.86,28.11 L 54.59,28.64 L 54.00,29.98 L 53.69,30.69 L 53.03,32.36 L 51.96,35.25 L 51.39,36.87 L 50.39,39.61 L 49.92,40.90 L 49.10,43.03 L 48.71,44.03 L 48.02,45.62 L 47.69,46.36 L 47.10,47.49 L 46.81,48.00 L 46.27,48.74 L 46.00,49.07 L 45.47,49.49 L 43.72,49.92 L 43.11,49.90 L 41.82,49.73 L 41.21,49.63 L 40.37,49.38 L 40.28,49.34 L 40.22,48.99 L 40.21,48.76 L 40.31,48.04 L 40.38,47.64 L 40.65,46.56 L 40.80,45.98 L 41.22,44.56 L 41.45,43.80 L 42.03,42.03 L 42.34,41.10 L 43.07,39.00 L 43.46,37.90 L 44.34,35.47 L 45.84,31.46 L 52.44,14.00 L 56.66,14.00 M 135.00,32.74 L 134.98,35.26 L 134.97,36.49 L 134.93,38.74 L 134.91,39.83 L 134.84,41.79 L 134.81,42.73 L 134.73,44.38 L 134.68,45.16 L 134.58,46.47 L 134.53,47.08 L 134.40,48.04 L 134.34,48.48 L 134.20,49.07 L 133.98,49.52 L 133.69,49.69 L 132.45,49.78 L 130.23,49.52 L 129.72,49.40 L 128.56,48.67 L 127.94,48.21 L 126.45,46.66 L 126.04,46.22 L 125.15,45.15 L 124.69,44.58 L 123.67,43.25 L 123.14,42.56 L 121.96,40.95 L 120.00,38.19 L 112.50,27.50 L 112.22,38.75 L 112.18,40.11 L 112.12,42.36 L 112.09,43.41 L 112.01,45.10 L 111.97,45.88 L 111.87,47.09 L 111.82,47.64 L 111.67,48.45 L 111.59,48.81 L 111.38,49.29 L 111.27,49.50 L 110.98,49.74 L 109.72,49.92 L 109.11,49.90 L 107.78,49.72 L 107.16,49.61 L 106.25,49.34 L 106.13,49.29 L 105.93,48.99 L 105.83,48.81 L 105.66,48.21 L 105.58,47.87 L 105.44,46.93 L 105.38,46.42 L 105.28,45.11 L 105.23,44.41 L 105.15,42.70 L 105.11,41.79 L 105.06,39.65 L 105.04,38.52 L 105.02,35.90 L 105.00,31.42 L 105.00,14.00 L 108.36,14.00 L 109.14,14.00 L 110.38,14.25 L 110.99,14.46 L 112.26,15.49 L 112.60,15.82 L 113.38,16.70 L 113.79,17.19 L 114.75,18.43 L 115.26,19.10 L 116.47,20.77 L 118.61,23.79 L 119.56,25.14 L 121.35,27.61 L 122.22,28.79 L 123.73,30.77 L 124.43,31.68 L 125.48,32.94 L 125.70,33.20 L 126.04,33.55 L 126.35,33.79 L 126.47,33.82 L 126.69,33.10 L 126.80,32.63 L 127.00,31.07 L 127.09,30.21 L 127.23,28.02 L 127.35,24.25 L 127.50,14.50 L 131.25,14.19 L 135.00,13.88 M 90.21,14.38 L 91.44,14.62 L 93.83,15.36 L 94.98,15.76 L 96.86,16.71 L 97.28,16.96 L 97.94,17.45 L 98.62,18.20 L 98.70,18.33 L 98.67,18.75 L 98.63,18.99 L 98.38,19.57 L 96.97,21.53 L 96.44,22.09 L 95.66,22.82 L 95.29,23.12 L 94.63,23.35 L 94.29,23.40 L 93.48,23.18 L 91.80,22.40 L 90.80,21.88 L 88.82,21.33 L 87.86,21.14 L 86.16,21.20 L 85.37,21.30 L 84.24,21.93 L 84.00,22.12 L 83.69,22.60 L 83.50,23.47 L 83.50,23.83 L 83.86,24.56 L 84.11,24.93 L 85.03,25.73 L 85.57,26.15 L 87.14,27.09 L 90.30,28.72 L 91.64,29.37 L 93.69,30.48 L 94.63,31.02 L 96.00,32.02 L 96.62,32.52 L 97.51,33.57 L 98.50,35.35 L 98.81,36.09 L 99.16,37.55 L 99.30,38.28 L 99.32,39.71 L 99.29,40.42 L 99.00,41.77 L 98.82,42.44 L 98.22,43.69 L 97.89,44.30 L 97.02,45.42 L 96.55,45.96 L 95.41,46.91 L 94.80,47.36 L 93.42,48.12 L 91.07,49.00 L 89.91,49.32 L 88.12,49.71 L 87.29,49.85 L 85.86,49.87 L 85.16,49.83 L 83.70,49.45 L 82.93,49.21 L 81.03,48.42 L 80.15,48.04 L 78.45,47.10 L 77.63,46.61 L 76.20,45.60 L 75.54,45.10 L 74.61,44.18 L 74.03,43.10 L 74.04,43.01 L 74.20,42.68 L 74.30,42.49 L 74.63,41.99 L 76.02,40.15 L 77.98,37.80 L 81.07,40.40 L 81.88,41.09 L 83.69,42.06 L 84.60,42.48 L 86.41,42.88 L 87.30,43.01 L 88.90,42.81 L 90.80,41.80 L 91.12,41.48 L 91.58,40.86 L 91.78,40.56 L 91.97,39.97 L 92.03,39.68 L 91.95,39.10 L 91.88,38.82 L 91.51,38.24 L 91.28,37.95 L 90.61,37.35 L 90.24,37.05 L 89.26,36.41 L 88.73,36.09 L 87.42,35.41 L 85.09,34.31 L 83.79,33.74 L 81.73,32.70 L 80.78,32.19 L 79.32,31.22 L 78.66,30.73 L 77.66,29.72 L 76.53,28.05 L 76.09,27.20 L 75.61,25.50 L 75.44,24.65 L 75.45,22.99 L 75.52,22.18 L 75.98,20.63 L 76.27,19.87 L 77.14,18.48 L 77.62,17.82 L 78.85,16.66 L 79.51,16.11 L 81.05,15.24 L 81.86,14.85 L 83.68,14.33 L 86.68,14.00 L 87.77,14.00 M 490.11,14.19 L 491.45,14.26 L 493.55,14.49 L 494.54,14.62 L 496.14,15.02 L 496.90,15.26 L 498.27,15.93 L 500.36,17.33 L 500.90,17.74 L 501.78,18.45 L 502.19,18.79 L 502.82,19.38 L 503.39,19.95 L 503.79,20.87 L 503.87,21.31 L 503.34,22.15 L 501.53,23.57 L 500.95,23.95 L 500.10,24.42 L 499.71,24.60 L 499.03,24.64 L 498.69,24.61 L 497.93,24.21 L 496.39,23.10 L 495.36,22.28 L 492.91,21.33 L 491.65,20.96 L 489.00,20.90 L 487.68,20.97 L 485.17,21.77 L 481.92,23.92 L 481.43,24.42 L 480.61,25.52 L 480.23,26.09 L 479.66,27.31 L 479.15,28.55 L 478.84,31.23 L 478.81,32.57 L 479.48,35.24 L 481.59,38.92 L 482.15,39.58 L 483.10,40.52 L 483.58,40.93 L 484.57,41.45 L 485.09,41.67 L 486.38,41.89 L 488.95,42.00 L 489.78,42.00 L 491.25,41.88 L 491.95,41.80 L 493.21,41.51 L 496.33,39.95 L 496.95,39.47 L 497.83,38.86 L 498.24,38.61 L 498.92,38.45 L 499.26,38.42 L 500.00,38.69 L 501.47,39.57 L 502.16,40.03 L 503.26,40.98 L 503.49,41.20 L 503.80,41.59 L 504.00,42.03 L 504.00,42.22 L 503.73,42.73 L 503.55,43.00 L 502.98,43.63 L 502.35,44.27 L 500.48,45.70 L 499.48,46.41 L 497.29,47.67 L 494.22,48.96 L 493.04,49.28 L 491.23,49.68 L 490.39,49.83 L 488.91,49.87 L 488.18,49.84 L 486.57,49.48 L 485.70,49.26 L 483.50,48.50 L 482.46,48.13 L 480.53,47.12 L 479.60,46.57 L 477.91,45.23 L 477.10,44.52 L 475.68,42.92 L 475.00,42.09 L 473.87,40.27 L 473.35,39.34 L 472.55,37.36 L 472.19,36.36 L 471.75,34.27 L 471.58,33.23 L 471.52,31.09 L 471.91,27.90 L 472.20,26.63 L 473.02,24.36 L 473.49,23.27 L 474.71,21.31 L 475.37,20.36 L 477.04,18.61 L 480.09,16.16 L 480.82,15.66 L 482.09,14.97 L 482.73,14.67 L 484.08,14.31 L 484.79,14.17 L 486.57,14.09 M 284.21,14.08 L 286.32,14.47 L 287.33,14.72 L 289.15,15.61 L 291.92,17.59 L 292.85,18.37 L 294.04,19.55 L 294.52,20.09 L 294.82,20.97 L 294.86,21.39 L 294.30,22.20 L 292.53,23.57 L 291.95,23.95 L 291.10,24.42 L 290.71,24.60 L 290.03,24.64 L 289.69,24.61 L 288.93,24.21 L 287.39,23.10 L 286.49,22.39 L 284.29,21.52 L 280.27,21.00 L 279.13,21.00 L 277.08,21.45 L 276.09,21.74 L 274.40,22.69 L 273.59,23.22 L 272.29,24.58 L 271.68,25.30 L 270.81,26.98 L 270.43,27.84 L 270.04,29.73 L 269.90,30.69 L 270.03,32.69 L 270.16,33.69 L 270.84,35.71 L 272.55,38.66 L 273.12,39.40 L 274.06,40.43 L 274.52,40.89 L 275.48,41.44 L 275.99,41.68 L 277.28,41.90 L 279.92,42.00 L 280.75,42.00 L 282.23,41.88 L 282.94,41.80 L 284.20,41.51 L 287.33,39.95 L 287.95,39.47 L 288.83,38.86 L 289.24,38.61 L 289.92,38.45 L 290.26,38.42 L 291.00,38.69 L 292.47,39.57 L 293.16,40.03 L 294.26,40.95 L 294.49,41.16 L 294.80,41.53 L 295.00,41.93 L 295.00,42.14 L 294.74,42.67 L 294.57,42.95 L 294.03,43.59 L 293.42,44.25 L 291.62,45.68 L 290.66,46.38 L 288.53,47.63 L 285.50,48.90 L 284.38,49.20 L 282.82,49.59 L 282.10,49.74 L 280.91,49.82 L 280.32,49.83 L 278.96,49.63 L 278.21,49.49 L 276.12,49.00 L 275.17,48.77 L 273.41,48.14 L 272.56,47.79 L 270.99,46.93 L 270.23,46.46 L 268.86,45.37 L 268.20,44.80 L 267.04,43.50 L 266.49,42.82 L 265.55,41.32 L 265.11,40.54 L 264.41,38.85 L 264.08,37.99 L 263.62,36.12 L 263.20,33.15 L 263.11,31.80 L 263.22,29.27 L 263.33,28.04 L 263.84,25.75 L 264.14,24.65 L 265.02,22.63 L 265.51,21.66 L 266.75,19.95 L 267.41,19.13 L 268.99,17.73 L 269.82,17.07 L 271.72,16.00 L 272.71,15.52 L 274.91,14.82 L 278.53,14.21 L 280.22,14.07 L 282.94,14.04 M 519.24,14.22 L 532.49,14.50 L 532.49,17.50 L 532.50,18.22 L 532.39,19.19 L 532.31,19.61 L 531.83,20.12 L 531.52,20.33 L 530.42,20.57 L 527.78,20.80 L 523.05,21.11 L 522.50,49.50 L 520.00,49.76 L 519.31,49.83 L 517.84,49.69 L 517.15,49.58 L 516.17,49.15 L 515.91,48.98 L 515.54,48.08 L 515.46,47.80 L 515.33,47.04 L 515.28,46.63 L 515.19,45.60 L 515.15,45.04 L 515.10,43.69 L 515.08,42.97 L 515.07,41.26 L 515.07,40.36 L 515.10,38.26 L 515.17,34.64 L 515.50,21.00 L 506.00,21.00 L 506.00,13.94 M 221.00,28.10 L 221.05,31.04 L 221.08,32.43 L 221.22,34.71 L 221.31,35.77 L 221.58,37.46 L 221.74,38.24 L 222.19,39.43 L 222.44,39.97 L 223.11,40.74 L 223.47,41.09 L 224.39,41.53 L 224.88,41.71 L 226.09,41.90 L 228.27,42.00 L 228.99,42.00 L 230.22,41.87 L 230.80,41.78 L 231.76,41.42 L 232.21,41.21 L 232.94,40.54 L 233.28,40.16 L 233.80,39.11 L 234.04,38.53 L 234.39,37.03 L 234.55,36.21 L 234.76,34.18 L 234.85,33.10 L 234.95,30.47 L 235.00,25.78 L 235.00,14.00 L 242.00,14.00 L 242.00,26.25 L 242.00,27.92 L 241.94,30.85 L 241.90,32.25 L 241.74,34.67 L 241.65,35.83 L 241.37,37.83 L 241.22,38.78 L 240.81,40.42 L 240.59,41.20 L 240.02,42.54 L 239.72,43.18 L 238.98,44.30 L 236.00,47.15 L 235.03,47.84 L 232.76,48.80 L 231.59,49.20 L 229.10,49.56 L 227.85,49.66 L 225.39,49.40 L 224.19,49.19 L 222.02,48.30 L 221.54,48.05 L 220.49,47.33 L 219.96,46.94 L 218.90,46.03 L 216.27,43.10 L 215.75,42.33 L 215.04,40.90 L 214.73,40.15 L 214.36,38.20 L 214.28,37.65 L 214.17,36.32 L 214.13,35.61 L 214.06,33.89 L 214.04,32.98 L 214.01,30.78 L 214.00,26.85 L 214.00,14.00 L 221.00,14.00 M 317.76,14.00 L 320.50,14.42 L 321.82,14.70 L 324.19,15.74 L 325.34,16.35 L 327.49,18.09 L 330.62,21.56 L 331.22,22.36 L 332.08,23.71 L 332.46,24.38 L 332.95,25.74 L 333.16,26.46 L 333.37,28.16 L 333.48,31.47 L 333.49,32.72 L 333.38,34.72 L 333.30,35.65 L 332.98,37.22 L 332.78,37.98 L 332.17,39.39 L 330.84,41.66 L 330.33,42.44 L 329.11,43.83 L 328.47,44.51 L 327.03,45.69 L 326.29,46.26 L 324.67,47.22 L 323.84,47.66 L 322.10,48.38 L 321.22,48.70 L 319.39,49.15 L 318.47,49.34 L 316.61,49.51 L 315.68,49.55 L 313.84,49.43 L 312.92,49.32 L 311.13,48.88 L 309.87,48.51 L 307.59,47.44 L 306.49,46.85 L 304.52,45.37 L 303.58,44.57 L 301.98,42.70 L 300.00,39.49 L 299.40,38.26 L 298.62,35.88 L 298.31,34.70 L 298.09,32.38 L 298.06,31.21 L 298.40,28.87 L 299.55,25.23 L 299.95,24.28 L 300.84,22.56 L 301.31,21.74 L 302.35,20.26 L 302.89,19.56 L 304.08,18.33 L 304.69,17.75 L 306.03,16.76 L 306.72,16.30 L 308.21,15.55 L 308.98,15.20 L 310.63,14.68 L 311.47,14.46 L 313.29,14.17 L 316.20,14.00 M 194.43,14.43 L 195.70,14.71 L 198.03,15.67 L 199.16,16.20 L 201.18,17.62 L 202.15,18.38 L 203.81,20.20 L 204.59,21.16 L 205.85,23.32 L 206.42,24.45 L 207.23,26.91 L 207.57,28.17 L 207.87,30.86 L 207.71,35.10 L 207.54,36.37 L 206.73,38.75 L 206.26,39.90 L 204.91,42.00 L 204.18,43.01 L 202.40,44.77 L 201.46,45.61 L 199.34,46.98 L 198.24,47.62 L 195.87,48.55 L 194.66,48.95 L 192.14,49.38 L 190.88,49.53 L 188.31,49.41 L 187.02,49.27 L 184.50,48.53 L 183.95,48.33 L 182.70,47.70 L 182.06,47.35 L 180.74,46.49 L 180.09,46.05 L 178.86,45.08 L 177.31,43.62 L 176.65,42.90 L 175.53,41.39 L 175.01,40.62 L 174.18,39.04 L 173.41,37.44 L 172.67,34.13 L 172.42,32.47 L 172.65,29.18 L 172.88,27.56 L 174.00,24.49 L 174.66,23.00 L 176.58,20.33 L 177.63,19.07 L 180.27,17.01 L 180.97,16.54 L 182.48,15.75 L 183.26,15.38 L 184.93,14.80 L 185.79,14.54 L 187.59,14.21 L 190.45,14.00 L 191.83,14.00 M 188.76,20.98 L 187.07,21.38 L 186.25,21.64 L 184.76,22.44 L 184.04,22.89 L 182.81,24.06 L 182.23,24.68 L 181.31,26.17 L 180.89,26.96 L 180.34,28.73 L 180.00,31.68 L 180.00,32.74 L 180.36,34.66 L 180.60,35.58 L 181.39,37.21 L 181.83,37.98 L 182.98,39.27 L 183.59,39.87 L 185.03,40.80 L 185.79,41.21 L 187.46,41.74 L 188.32,41.95 L 190.17,42.04 L 191.11,42.02 L 193.05,41.64 L 194.03,41.38 L 196.02,40.49 L 196.82,40.07 L 198.39,38.86 L 199.97,37.06 L 200.29,36.46 L 200.70,35.12 L 200.87,34.44 L 200.99,33.00 L 201.04,31.54 L 200.37,28.58 L 200.15,27.86 L 199.53,26.51 L 199.20,25.85 L 198.38,24.66 L 197.95,24.10 L 196.96,23.15 L 195.29,22.09 L 194.33,21.65 L 192.42,21.15 L 191.48,20.96 L 189.65,20.93 M 314.68,21.06 L 313.60,21.21 L 311.52,22.02 L 310.51,22.52 L 308.68,24.05 L 306.41,27.18 L 305.97,28.03 L 305.49,29.77 L 305.32,30.64 L 305.33,32.36 L 305.39,33.21 L 305.85,34.85 L 306.13,35.65 L 306.98,37.14 L 307.45,37.85 L 308.65,39.10 L 309.29,39.69 L 310.79,40.64 L 311.57,41.07 L 313.32,41.64 L 316.18,42.00 L 316.99,42.00 L 318.33,41.85 L 318.97,41.75 L 320.10,41.31 L 320.66,41.05 L 321.80,40.23 L 322.38,39.77 L 323.73,38.47 L 324.53,37.67 L 325.62,36.45 L 326.09,35.87 L 326.61,34.83 L 326.81,34.31 L 326.90,33.10 L 326.69,30.72 L 326.50,29.34 L 325.60,27.00 L 325.08,25.90 L 323.61,24.13 L 322.83,23.32 L 320.97,22.16 L 320.00,21.65 L 317.91,21.12 L 316.85,20.93 Z" fill="rgb(255,255,255)"/>
<path d="M 436.57,48.02 L 433.27,48.04 L 431.78,48.07 L 428.92,48.12 L 427.67,48.15 L 425.27,48.22 L 424.25,48.26 L 422.33,48.35 L 421.55,48.40 L 420.12,48.51 L 419.59,48.57 L 418.67,48.70 L 418.40,48.77 L 418.00,48.92 L 418.00,49.00 L 418.14,49.16 L 418.40,49.23 L 419.07,49.36 L 419.59,49.43 L 420.77,49.54 L 421.55,49.60 L 423.23,49.70 L 424.25,49.74 L 426.41,49.82 L 427.67,49.85 L 430.30,49.91 L 431.78,49.93 L 434.86,49.97 L 436.57,49.98 L 440.05,50.00 L 440.00,50.00 L 437.92,50.00 L 434.10,49.98 L 432.25,49.97 L 428.91,49.93 L 427.30,49.91 L 424.45,49.85 L 423.09,49.82 L 420.75,49.74 L 419.65,49.70 L 417.83,49.60 L 416.99,49.55 L 415.72,49.43 L 415.15,49.36 L 414.43,49.23 L 414.15,49.16 L 414.00,49.00 L 414.00,48.92 L 414.43,48.77 L 414.72,48.70 L 415.72,48.57 L 416.29,48.51 L 417.83,48.40 L 418.67,48.35 L 420.75,48.26 L 421.85,48.22 L 424.45,48.15 L 425.81,48.12 L 428.91,48.07 L 430.52,48.04 L 434.10,48.02 L 440.00,48.00 L 442.00,48.00 M 466.00,49.08 L 465.99,49.08 L 466.00,49.08 M 448.83,31.10 L 450.25,31.12 L 452.92,31.17 L 454.23,31.20 L 456.63,31.28 L 457.79,31.32 L 459.82,31.41 L 460.78,31.46 L 462.36,31.58 L 463.09,31.64 L 464.13,31.77 L 465.00,32.00 L 465.12,32.08 L 464.93,32.23 L 464.75,32.30 L 463.97,32.42 L 463.50,32.48 L 462.13,32.59 L 461.37,32.64 L 459.42,32.72 L 458.38,32.76 L 455.85,32.83 L 454.51,32.86 L 451.42,32.91 L 449.80,32.93 L 446.13,32.95 L 440.00,32.97 L 437.82,32.97 L 433.87,32.95 L 431.97,32.94 L 428.58,32.91 L 426.96,32.89 L 424.15,32.83 L 422.82,32.80 L 420.58,32.72 L 419.53,32.68 L 417.87,32.59 L 417.11,32.54 L 416.03,32.42 L 415.57,32.36 L 415.07,32.23 L 414.90,32.15 L 415.00,32.00 L 415.12,31.92 L 415.87,31.77 L 416.31,31.70 L 417.64,31.58 L 418.36,31.52 L 420.18,31.41 L 421.14,31.36 L 423.37,31.28 L 424.53,31.24 L 427.08,31.17 L 428.38,31.14 L 431.17,31.10 L 434.00,31.06 L 440.00,31.04 L 443.00,31.04 M 435.77,15.02 L 432.36,15.04 L 430.84,15.06 L 427.94,15.11 L 426.68,15.14 L 424.28,15.21 L 423.27,15.25 L 421.39,15.34 L 420.65,15.40 L 419.29,15.50 L 418.80,15.57 L 417.97,15.70 L 417.75,15.77 L 417.45,15.92 L 417.50,16.00 L 417.74,16.15 L 418.06,16.22 L 418.83,16.36 L 419.41,16.42 L 420.69,16.54 L 421.52,16.59 L 423.28,16.69 L 424.34,16.73 L 426.57,16.81 L 427.85,16.85 L 430.51,16.91 L 432.00,16.93 L 435.07,16.97 L 436.75,16.98 L 440.20,17.00 L 438.57,17.00 L 434.90,16.98 L 433.11,16.97 L 429.84,16.93 L 428.26,16.91 L 425.44,16.85 L 424.08,16.82 L 421.72,16.73 L 420.60,16.69 L 418.73,16.59 L 417.86,16.54 L 416.50,16.42 L 415.89,16.36 L 415.08,16.22 L 414.74,16.15 L 414.50,16.00 L 414.45,15.92 L 414.77,15.77 L 415.01,15.70 L 415.90,15.57 L 416.41,15.50 L 417.86,15.39 L 418.65,15.34 L 420.65,15.25 L 421.72,15.21 L 424.26,15.14 L 425.60,15.11 L 428.69,15.06 L 430.30,15.04 L 433.92,15.02 L 439.94,15.00 L 441.44,15.00 M 466.00,16.08 L 465.99,16.08 L 466.00,16.08 Z" fill="rgb(255,255,255)"/>
<path d="M 447.43,48.02 L 449.14,48.03 L 452.22,48.07 L 453.70,48.09 L 456.33,48.15 L 457.59,48.18 L 459.75,48.26 L 460.77,48.30 L 462.45,48.40 L 463.23,48.46 L 464.41,48.57 L 464.93,48.64 L 465.60,48.77 L 466.00,49.00 L 466.00,49.08 L 465.60,49.23 L 465.33,49.30 L 464.41,49.43 L 463.88,49.49 L 462.45,49.60 L 461.67,49.65 L 459.75,49.74 L 458.73,49.78 L 456.33,49.85 L 455.08,49.88 L 452.22,49.93 L 450.73,49.96 L 447.43,49.98 L 442.00,50.00 L 440.08,50.00 L 436.57,49.98 L 434.86,49.97 L 431.78,49.93 L 430.30,49.91 L 427.67,49.85 L 426.41,49.82 L 424.25,49.74 L 423.23,49.70 L 421.55,49.60 L 420.77,49.54 L 419.59,49.43 L 419.07,49.36 L 418.40,49.23 L 418.14,49.16 L 418.00,49.00 L 418.00,48.92 L 418.40,48.77 L 418.67,48.70 L 419.59,48.57 L 420.12,48.51 L 421.55,48.40 L 422.33,48.35 L 424.25,48.26 L 425.27,48.22 L 427.67,48.15 L 428.92,48.12 L 431.78,48.07 L 433.27,48.04 L 436.57,48.02 L 442.00,48.00 L 443.92,48.00 M 444.14,15.00 L 440.74,15.02 L 438.14,15.05 L 436.97,15.07 L 434.71,15.12 L 433.71,15.15 L 431.81,15.22 L 431.00,15.26 L 429.47,15.35 L 428.85,15.41 L 427.70,15.52 L 427.28,15.58 L 426.54,15.71 L 426.32,15.78 L 426.00,15.92 L 426.00,16.00 L 426.11,16.15 L 426.32,16.22 L 426.86,16.36 L 427.28,16.42 L 428.23,16.54 L 428.85,16.59 L 430.19,16.69 L 431.00,16.74 L 432.72,16.82 L 433.71,16.85 L 435.80,16.91 L 436.97,16.93 L 439.40,16.97 L 440.74,16.98 L 443.02,17.00 L 442.06,17.00 L 440.20,17.00 L 436.75,16.98 L 435.07,16.97 L 432.00,16.93 L 430.51,16.91 L 427.85,16.85 L 426.57,16.81 L 424.34,16.73 L 423.28,16.69 L 421.52,16.59 L 420.69,16.54 L 419.41,16.42 L 418.83,16.36 L 418.06,16.22 L 417.74,16.15 L 417.50,16.00 L 417.45,15.92 L 417.75,15.77 L 417.97,15.70 L 418.80,15.57 L 419.29,15.50 L 420.65,15.40 L 421.39,15.34 L 423.27,15.25 L 424.28,15.21 L 426.68,15.14 L 427.94,15.11 L 430.84,15.06 L 432.36,15.04 L 435.77,15.02 L 441.44,15.00 L 443.40,15.00 M 457.40,15.18 L 459.61,15.26 L 460.65,15.30 L 462.37,15.40 L 463.17,15.45 L 464.37,15.57 L 464.91,15.64 L 465.59,15.77 L 466.00,16.00 L 466.00,16.08 L 465.60,16.23 L 465.33,16.30 L 464.41,16.43 L 463.89,16.49 L 462.46,16.60 L 461.68,16.65 L 459.76,16.74 L 458.75,16.78 L 456.36,16.85 L 455.75,16.87 L 456.29,16.85 L 458.19,16.78 L 459.00,16.74 L 460.53,16.65 L 461.15,16.59 L 462.30,16.48 L 462.72,16.42 L 463.46,16.29 L 463.68,16.22 L 464.00,16.08 L 464.00,16.00 L 463.68,15.78 L 463.14,15.64 L 462.72,15.58 L 461.77,15.46 L 461.15,15.41 L 459.81,15.31 L 459.00,15.26 L 457.28,15.18 L 456.58,15.16 Z" fill="rgb(255,255,255)"/>
<path d="M 426.00,16.00 L 426.00,15.92 L 426.32,15.78 L 426.54,15.71 L 427.28,15.58 L 427.70,15.52 L 428.85,15.41 L 429.47,15.35 L 431.00,15.26 L 431.81,15.22 L 433.71,15.15 L 434.71,15.12 L 436.97,15.07 L 438.14,15.05 L 440.74,15.02 L 445.00,15.00 L 446.50,15.00 L 449.26,15.02 L 450.60,15.03 L 453.03,15.07 L 454.20,15.09 L 456.29,15.15 L 457.28,15.18 L 459.00,15.26 L 459.81,15.31 L 461.15,15.41 L 461.77,15.46 L 462.72,15.58 L 463.14,15.64 L 463.68,15.78 L 464.00,16.00 L 464.00,16.08 L 463.68,16.22 L 463.46,16.29 L 462.72,16.42 L 462.30,16.48 L 461.15,16.59 L 460.53,16.65 L 459.00,16.74 L 458.19,16.78 L 456.29,16.85 L 455.29,16.88 L 453.03,16.93 L 451.86,16.95 L 449.26,16.98 L 445.00,17.00 L 443.50,17.00 L 440.74,16.98 L 439.40,16.97 L 436.97,16.93 L 435.80,16.91 L 433.71,16.85 L 432.72,16.82 L 431.00,16.74 L 430.19,16.69 L 428.85,16.59 L 428.23,16.54 L 427.28,16.42 L 426.86,16.36 L 426.32,16.22 L 426.11,16.15 Z" fill="rgb(255,255,255)"/>
</g>
</svg>