<svg width="20" height="20" viewBox="0 0 20 20" fill="none" xmlns="http://www.w3.org/2000/svg">
    <path d="M18.1633 16.8367L14.4532 13.125C15.5656 11.6754 16.085 9.85688 15.9059 8.03841C15.7268 6.21993 14.8628 4.53765 13.489 3.33282C12.1152 2.12799 10.3345 1.49084 8.50825 1.55061C6.68196 1.61038 4.94678 2.3626 3.6547 3.65467C2.36263 4.94675 1.61041 6.68193 1.55064 8.50822C1.49087 10.3345 2.12802 12.1152 3.33285 13.489C4.53768 14.8628 6.21996 15.7268 8.03844 15.9059C9.85691 16.0849 11.6754 15.5656 13.125 14.4531L16.8383 18.1672C16.9255 18.2544 17.0291 18.3236 17.143 18.3708C17.2569 18.418 17.3791 18.4423 17.5024 18.4423C17.6257 18.4423 17.7478 18.418 17.8618 18.3708C17.9757 18.3236 18.0792 18.2544 18.1665 18.1672C18.2537 18.08 18.3228 17.9765 18.37 17.8625C18.4172 17.7486 18.4415 17.6265 18.4415 17.5031C18.4415 17.3798 18.4172 17.2577 18.37 17.1438C18.3228 17.0298 18.2537 16.9263 18.1665 16.8391L18.1633 16.8367ZM3.43755 8.75002C3.43755 7.6993 3.74912 6.67218 4.33286 5.79855C4.91661 4.92491 5.74631 4.244 6.71704 3.84191C7.68777 3.43981 8.75594 3.33461 9.78646 3.53959C10.817 3.74458 11.7636 4.25054 12.5066 4.99351C13.2495 5.73648 13.7555 6.68307 13.9605 7.7136C14.1655 8.74412 14.0602 9.81229 13.6582 10.783C13.2561 11.7538 12.5751 12.5835 11.7015 13.1672C10.8279 13.7509 9.80076 14.0625 8.75005 14.0625C7.34153 14.0611 5.99111 13.5009 4.99514 12.5049C3.99917 11.5089 3.43899 10.1585 3.43755 8.75002Z" fill="#475569"/>
</svg>
    