<svg width="11" height="8" viewBox="0 0 11 8" fill="none" xmlns="http://www.w3.org/2000/svg">
<path d="M9.89795 1.77298L3.89795 7.77298C3.84569 7.82542 3.78359 7.86703 3.71522 7.89542C3.64685 7.92381 3.57354 7.93842 3.49951 7.93842C3.42548 7.93842 3.35217 7.92381 3.2838 7.89542C3.21543 7.86703 3.15333 7.82542 3.10107 7.77298L0.476073 5.14798C0.42375 5.09565 0.382244 5.03354 0.353927 4.96517C0.32561 4.89681 0.311035 4.82354 0.311035 4.74954C0.311035 4.67554 0.32561 4.60227 0.353927 4.53391C0.382244 4.46554 0.42375 4.40343 0.476073 4.3511C0.528397 4.29878 0.590514 4.25727 0.658878 4.22896C0.727242 4.20064 0.800514 4.18606 0.874511 4.18606C0.948508 4.18606 1.02178 4.20064 1.09014 4.22896C1.15851 4.25727 1.22062 4.29878 1.27295 4.3511L3.49998 6.57813L9.10201 0.97704C9.20768 0.871368 9.35101 0.812002 9.50045 0.812002C9.64989 0.812002 9.79321 0.871368 9.89889 0.97704C10.0046 1.08271 10.0639 1.22603 10.0639 1.37548C10.0639 1.52492 10.0046 1.66824 9.89889 1.77392L9.89795 1.77298Z" fill="#A5B4FC"/>
</svg>
